<svg width="270" height="58" viewBox="0 0 270 58" fill="none" xmlns="http://www.w3.org/2000/svg">
<g filter="url(#filter0_d_7_6)">
<g clip-path="url(#clip0_7_6)">
<path d="M4 9.99999C4 4.47714 8.47715 0 14 0H255.897C261.419 0 265.897 4.47715 265.897 10V39.7452C265.897 45.268 261.419 49.7452 255.897 49.7452H14C8.47716 49.7452 4 45.268 4 39.7452V9.99999Z" fill="url(#paint0_radial_7_6)" fill-opacity="0.38" shape-rendering="crispEdges"/>
<rect width="261.897" height="49.7452" transform="translate(4)" fill="url(#paint1_radial_7_6)"/>
<g filter="url(#filter1_d_7_6)">
<path d="M4.0192 10.5026C4.00859 4.97973 8.47714 0.493988 14 0.483386L255.802 0.0191969C261.325 0.0085947 265.811 4.47714 265.821 9.99998L265.877 39.2426C265.888 44.7655 261.419 49.2512 255.897 49.2618L14.0945 49.726C8.57167 49.7366 4.08594 45.268 4.07533 39.7452L4.0192 10.5026Z" fill="#9569F2" fill-opacity="0.38" shape-rendering="crispEdges"/>
</g>
</g>
<path d="M14 0.5H255.897C261.143 0.5 265.397 4.7533 265.397 10V39.7452C265.397 44.9919 261.143 49.2452 255.897 49.2452H14C8.7533 49.2452 4.5 44.9919 4.5 39.7452V9.99999C4.5 4.75328 8.75329 0.5 14 0.5Z" stroke="url(#paint2_radial_7_6)" stroke-linejoin="bevel" shape-rendering="crispEdges"/>
</g>
<defs>
<filter id="filter0_d_7_6" x="0" y="0" width="269.897" height="57.7452" filterUnits="userSpaceOnUse" color-interpolation-filters="sRGB">
<feFlood flood-opacity="0" result="BackgroundImageFix"/>
<feColorMatrix in="SourceAlpha" type="matrix" values="0 0 0 0 0 0 0 0 0 0 0 0 0 0 0 0 0 0 127 0" result="hardAlpha"/>
<feOffset dy="4"/>
<feGaussianBlur stdDeviation="2"/>
<feComposite in2="hardAlpha" operator="out"/>
<feColorMatrix type="matrix" values="0 0 0 0 0 0 0 0 0 0 0 0 0 0 0 0 0 0 0.25 0"/>
<feBlend mode="normal" in2="BackgroundImageFix" result="effect1_dropShadow_7_6"/>
<feBlend mode="normal" in="SourceGraphic" in2="effect1_dropShadow_7_6" result="shape"/>
</filter>
<filter id="filter1_d_7_6" x="0.0191803" y="0.0191765" width="269.858" height="57.7068" filterUnits="userSpaceOnUse" color-interpolation-filters="sRGB">
<feFlood flood-opacity="0" result="BackgroundImageFix"/>
<feColorMatrix in="SourceAlpha" type="matrix" values="0 0 0 0 0 0 0 0 0 0 0 0 0 0 0 0 0 0 127 0" result="hardAlpha"/>
<feOffset dy="4"/>
<feGaussianBlur stdDeviation="2"/>
<feComposite in2="hardAlpha" operator="out"/>
<feColorMatrix type="matrix" values="0 0 0 0 0 0 0 0 0 0 0 0 0 0 0 0 0 0 0.25 0"/>
<feBlend mode="normal" in2="BackgroundImageFix" result="effect1_dropShadow_7_6"/>
<feBlend mode="normal" in="SourceGraphic" in2="effect1_dropShadow_7_6" result="shape"/>
</filter>
<radialGradient id="paint0_radial_7_6" cx="0" cy="0" r="1" gradientUnits="userSpaceOnUse" gradientTransform="translate(185 25) rotate(-180) scale(122 642.301)">
<stop stop-color="#FBF44E"/>
<stop offset="1" stop-color="#FBF44E" stop-opacity="0"/>
</radialGradient>
<radialGradient id="paint1_radial_7_6" cx="0" cy="0" r="1" gradientUnits="userSpaceOnUse" gradientTransform="translate(298 25) rotate(-180) scale(121 637.036)">
<stop stop-color="#FF8E0A"/>
<stop offset="1" stop-color="#FF8E0A" stop-opacity="0"/>
</radialGradient>
<radialGradient id="paint2_radial_7_6" cx="0" cy="0" r="1" gradientUnits="userSpaceOnUse" gradientTransform="translate(134.948 24.8726) rotate(90) scale(24.8726 130.948)">
<stop stop-color="#FF8E0A"/>
<stop offset="1" stop-color="#FB8E0E" stop-opacity="0"/>
</radialGradient>
<clipPath id="clip0_7_6">
<path d="M4 9.99999C4 4.47714 8.47715 0 14 0H255.897C261.419 0 265.897 4.47715 265.897 10V39.7452C265.897 45.268 261.419 49.7452 255.897 49.7452H14C8.47716 49.7452 4 45.268 4 39.7452V9.99999Z" fill="white"/>
</clipPath>
</defs>
</svg>
